<svg width="500" height="136" viewBox="0 0 500 136" fill="none" xmlns="http://www.w3.org/2000/svg">
<path d="M0.775001 5H41.125C46.875 5 52 6.2 56.5 8.59999C61 11 64.55 14.475 67.15 19.025C69.8 23.525 71.125 28.9 71.125 35.15C71.125 41.4 70 46.525 67.75 50.525C65.55 54.475 62.9 57.45 59.8 59.45C56.7 61.4 53.825 62.575 51.175 62.975L75.25 104H50.05L28.6 64.7H23.2V104H0.775001V5ZM23.2 49.175H33.1C37.1 49.175 40.6 48.2 43.6 46.25C46.6 44.3 48.1 40.85 48.1 35.9C48.1 30.95 46.625 27.525 43.675 25.625C40.725 23.675 37.25 22.7 33.25 22.7H23.2V49.175ZM108.22 78.05C108.37 80.25 109.07 82.2 110.32 83.9C111.57 85.6 113.295 86.95 115.495 87.95C117.745 88.9 120.395 89.375 123.445 89.375C126.345 89.375 128.945 89.075 131.245 88.475C133.595 87.875 135.62 87.125 137.32 86.225C139.07 85.325 140.42 84.4 141.37 83.45L150.22 97.55C148.97 98.9 147.195 100.225 144.895 101.525C142.645 102.775 139.67 103.8 135.97 104.6C132.27 105.4 127.595 105.8 121.945 105.8C115.145 105.8 109.095 104.525 103.795 101.975C98.4945 99.425 94.3195 95.675 91.2695 90.725C88.2195 85.775 86.6945 79.725 86.6945 72.575C86.6945 66.575 87.9945 61.175 90.5945 56.375C93.2445 51.525 97.0695 47.7 102.07 44.9C107.07 42.05 113.095 40.625 120.145 40.625C126.845 40.625 132.645 41.85 137.545 44.3C142.495 46.75 146.295 50.4 148.945 55.25C151.645 60.05 152.995 66.05 152.995 73.25C152.995 73.65 152.97 74.45 152.92 75.65C152.92 76.85 152.87 77.65 152.77 78.05H108.22ZM131.545 66.125C131.495 64.525 131.07 62.95 130.27 61.4C129.47 59.8 128.27 58.5 126.67 57.5C125.07 56.45 123.02 55.925 120.52 55.925C118.02 55.925 115.895 56.425 114.145 57.425C112.445 58.375 111.145 59.625 110.245 61.175C109.345 62.725 108.845 64.375 108.745 66.125H131.545ZM192.377 40.625C196.427 40.625 200.127 40.975 203.477 41.675C206.827 42.325 209.627 43.075 211.877 43.925C214.177 44.775 215.652 45.475 216.302 46.025L208.877 59.45C207.927 58.75 206.152 57.85 203.552 56.75C201.002 55.65 198.152 55.1 195.002 55.1C192.602 55.1 190.577 55.475 188.927 56.225C187.277 56.925 186.452 58.05 186.452 59.6C186.452 61.15 187.352 62.4 189.152 63.35C191.002 64.25 193.652 65.05 197.102 65.75C200.102 66.35 203.152 67.3 206.252 68.6C209.352 69.9 211.927 71.825 213.977 74.375C216.077 76.875 217.127 80.225 217.127 84.425C217.127 88.725 216.202 92.275 214.352 95.075C212.502 97.875 210.052 100.05 207.002 101.6C203.952 103.15 200.652 104.225 197.102 104.825C193.552 105.475 190.102 105.8 186.752 105.8C182.052 105.8 177.952 105.375 174.452 104.525C171.002 103.675 168.202 102.7 166.052 101.6C163.902 100.5 162.402 99.625 161.552 98.975L168.902 83.975C170.202 85.075 172.327 86.325 175.277 87.725C178.227 89.075 181.352 89.75 184.652 89.75C187.852 89.75 190.327 89.275 192.077 88.325C193.827 87.375 194.702 86.125 194.702 84.575C194.702 83.325 194.277 82.325 193.427 81.575C192.577 80.825 191.377 80.175 189.827 79.625C188.277 79.075 186.402 78.575 184.202 78.125C182.202 77.725 180.077 77.1 177.827 76.25C175.577 75.4 173.452 74.25 171.452 72.8C169.452 71.3 167.827 69.425 166.577 67.175C165.327 64.925 164.702 62.2 164.702 59C164.702 54.9 166.027 51.5 168.677 48.8C171.327 46.1 174.752 44.075 178.952 42.725C183.152 41.325 187.627 40.625 192.377 40.625ZM252.03 104H229.155V0.799996H252.03V104ZM298.08 105.8C291.33 105.8 285.33 104.425 280.08 101.675C274.88 98.875 270.78 95.05 267.78 90.2C264.83 85.3 263.355 79.7 263.355 73.4C263.355 67.1 264.83 61.5 267.78 56.6C270.78 51.65 274.88 47.75 280.08 44.9C285.33 42.05 291.33 40.625 298.08 40.625C304.83 40.625 310.78 42.05 315.93 44.9C321.08 47.75 325.105 51.65 328.005 56.6C330.905 61.5 332.355 67.1 332.355 73.4C332.355 79.7 330.905 85.3 328.005 90.2C325.105 95.05 321.08 98.875 315.93 101.675C310.78 104.425 304.83 105.8 298.08 105.8ZM298.08 87.05C300.68 87.05 302.93 86.475 304.83 85.325C306.73 84.175 308.205 82.55 309.255 80.45C310.305 78.35 310.83 75.975 310.83 73.325C310.83 70.625 310.305 68.225 309.255 66.125C308.205 64.025 306.73 62.375 304.83 61.175C302.93 59.975 300.68 59.375 298.08 59.375C295.48 59.375 293.205 59.975 291.255 61.175C289.355 62.375 287.855 64.025 286.755 66.125C285.705 68.225 285.18 70.625 285.18 73.325C285.18 75.975 285.705 78.35 286.755 80.45C287.855 82.55 289.355 84.175 291.255 85.325C293.205 86.475 295.48 87.05 298.08 87.05ZM365.82 70.925C365.82 75.825 366.745 79.75 368.595 82.7C370.445 85.6 373.545 87.05 377.895 87.05C382.345 87.05 385.47 85.6 387.27 82.7C389.12 79.75 390.045 75.825 390.045 70.925V42.425H412.545V73.325C412.545 79.925 411.17 85.675 408.42 90.575C405.72 95.425 401.795 99.175 396.645 101.825C391.495 104.475 385.245 105.8 377.895 105.8C370.595 105.8 364.37 104.475 359.22 101.825C354.07 99.175 350.145 95.425 347.445 90.575C344.745 85.675 343.395 79.925 343.395 73.325V42.425H365.82V70.925ZM448.823 135.2H426.248V42.425H449.048V51.425C449.748 50.025 451.073 48.5 453.023 46.85C455.023 45.15 457.548 43.7 460.598 42.5C463.698 41.25 467.198 40.625 471.098 40.625C477.098 40.625 482.223 42.1 486.473 45.05C490.773 48 494.073 51.95 496.373 56.9C498.673 61.8 499.823 67.25 499.823 73.25C499.823 79.25 498.598 84.725 496.148 89.675C493.698 94.575 490.248 98.5 485.798 101.45C481.398 104.35 476.198 105.8 470.198 105.8C465.898 105.8 462.223 105.05 459.173 103.55C456.173 102 453.798 100.3 452.048 98.45C450.348 96.55 449.273 95.075 448.823 94.025V135.2ZM477.548 73.25C477.548 70.45 476.923 67.95 475.673 65.75C474.423 63.5 472.723 61.75 470.573 60.5C468.473 59.2 466.098 58.55 463.448 58.55C460.698 58.55 458.223 59.2 456.023 60.5C453.873 61.75 452.173 63.5 450.923 65.75C449.673 67.95 449.048 70.45 449.048 73.25C449.048 76.05 449.673 78.575 450.923 80.825C452.173 83.025 453.873 84.75 456.023 86C458.223 87.25 460.698 87.875 463.448 87.875C466.098 87.875 468.473 87.25 470.573 86C472.723 84.75 474.423 83.025 475.673 80.825C476.923 78.575 477.548 76.05 477.548 73.25Z" fill="black"/>
</svg>
